<svg xmlns="http://www.w3.org/2000/svg" width="926" height="749" xmlns:v="https://vecta.io/nano"><circle cx="237.905" cy="226.935" r="83.979" fill="#ff6584"/><path d="M926 200.96v220.88c.002 86.46-34.343 169.382-95.48 230.52S686.46 747.842 600 747.84H0V526.96c0-118.03 62.73-221.42 156.68-278.63 16.2-9.868 33.215-18.294 50.88-25.18a320.09 320.09 0 0 1 31.76-10.53c.2-.07.43-.13.64-.18q4.77-1.305 9.6-2.46c.18-.05.35-.1.53-.13 19.845-4.73 40.09-7.584 60.47-8.53l7.25-.25a76.52 76.52 0 0 1 2.64-.05q2.76-.06 5.55-.06z" fill="#3f3d56"/><path d="M432 605.5C193.914 605.5.82 669.7.01 749h863.98c-.8-79.3-193.904-143.5-431.99-143.5z" fill="#f2f2f2"/><ellipse cx="352" cy="692" rx="80" ry="22.222" opacity=".1"/><ellipse cx="525" cy="652" rx="80" ry="22.222" opacity=".1"/><ellipse cx="352" cy="692" rx="72" ry="20" opacity=".1"/><ellipse cx="525" cy="652" rx="72" ry="20" opacity=".1"/><g fill="#f2f2f2"><circle cx="138" cy="290" r="7"/><circle cx="740" cy="564" r="7"/><circle cx="410" cy="339" r="7"/></g><g fill="#ff6584"><circle cx="757" cy="297" r="4"/><circle cx="154" cy="497" r="4"/></g><path d="M94 581.322h-1.822V579.5h-.356v1.822H90v.356h1.822v1.822h.356v-1.822H94v-.356zm585-148h-1.822V431.5h-.356v1.822H675v.356h1.822v1.822h.356v-1.822H679v-.356zm151-30h-1.822V401.5h-.356v1.822H826v.356h1.822v1.822h.356v-1.822H830v-.356zm-325 80h-1.822V481.5h-.356v1.822H501v.356h1.822v1.822h.356v-1.822H505v-.356zm281 10h-1.822V491.5h-.356v1.822H782v.356h1.822v1.822h.356v-1.822H786v-.356zm-339 43h-1.822V534.5h-.356v1.822H443v.356h1.822v1.822h.356v-1.822H447v-.356zm128 2h-1.822V536.5h-.356v1.822H571v.356h1.822v1.822h.356v-1.822H575v-.356zm-479-170h-1.822V366.5h-.356v1.822H92v.356h1.822v1.822h.356v-1.822H96v-.356z" fill="#f2f2f2"/><g fill="#e6e6e6"><path d="M676.997 230.7h2.874v58.063h-2.874zm-65.25 154.356l-26.445 60.938 5.174 8.623-1.725 2.874 12.073 6.324v-3.45l4.6-1.15 19.546-35.643-13.222-38.517z"/><path d="M591.052 456.907s-19.546 30.47 2.3 35.068 4.024-32.194 4.024-32.194z"/></g><path d="M619.22 443.11l-6.9 22.42-2.874 28.744-5.174 10.348 5.75 46.566 9.198 9.198 4.024 45.99v20.696l10.923 18.97-14.066 19.964a6.36 6.36 0 0 0 4.99 10.031c3.105.082 7.2-.796 12.525-3.55 16.672-8.623 16.097-16.672 16.097-16.672s10.348 0 10.923-8.048-6.324-65.537-6.324-65.537L652 557.51V490.25h2.3l1.15 57.49 5.174 21.27.575 9.198 7.474 91.982s33.343 9.198 35.068 1.725-12.647-12.073-12.647-12.073l8.623-16.672v-32.194l-2.874-6.9-5.174-46.566 8.623-9.198 4.6-5.75v-45.99l-5.75-17.82-1.725-14.947-9.198-22.995s-41.967-13.797-68.986 2.3z" fill="#fff"/><path d="M693.956 313.185c.001 18.986-12.26 35.8-30.34 41.602s-37.834-.734-48.883-16.174-10.862-36.248.462-51.487l.012-.012a43.69 43.69 0 0 1 78.748 26.071z" fill="#169bd7"/><path d="M687.747 295.07l-3.564 20.414c-26.784-69.527-69.39-26.818-70.125-26.07a43.69 43.69 0 0 1 73.689 5.657z" opacity=".1"/><g fill="#fff"><path d="M688.897 292.77l-3.564 20.414c-26.784-69.527-69.39-26.818-70.124-26.07a43.69 43.69 0 0 1 73.689 5.657z"/><path d="M682.908 284.153l5.99 20.8s-12.433 37.263-70.086 38.562l-1.9 5.323-6.324 1.725-2.874 12.073 8.048 76.46s-3.45 7.474 2.3 6.9c0 0 37.942-12.647 70.71-1.15 0 0 6.9 2.874 5.174-3.45 0 0 22.995-14.372 21.27-29.32s1.725-84.508 1.725-84.508 3.45-20.12-6.9-24.72c0 0-15.198-21.273-27.145-18.685z"/></g><g fill="#e6e6e6"><path d="M670.304 429.418s-36.018 3.617-26.048 23.59 27.725-16.85 27.725-16.85z"/><path d="M688.782 340.205s-6.324 7.474-4.024 19.546 10.923 39.092 10.923 39.092l-30.47 28.17 9.198 12.647 41.392-21.27 9.198-5.75c-2.287-23.252-7.98-46.043-16.892-67.64l-1.504-3.645s-10.923-4.6-17.82-1.15z"/><circle cx="685.908" cy="309.161" r="10.635"/><circle cx="678.434" cy="230.402" r="7.761"/></g><g fill="#f2f2f2"><path d="M481 352.322h-1.822V350.5h-.356v1.822H477v.356h1.822v1.822h.356v-1.822H481v-.356zm164-56h-1.822V294.5h-.356v1.822H641v.356h1.822v1.822h.356v-1.822H645v-.356zm-18 17h-1.822V311.5h-.356v1.822H623v.356h1.822v1.822h.356v-1.822H627v-.356z"/><circle cx="556" cy="267" r="4"/><path d="M358.958 295.195c0 279.044-35.088 279.044-78.36 279.044-22.37 0-42.554 0-56.826-38.546-4.103-11.078-7.728-25.362-10.767-43.75-6.843-41.333-10.767-103.447-10.767-196.748 0-35.878 4.247-71.05 10.767-103.9 3.134-15.815 6.795-31.08 10.767-45.64 4.857-17.825 10.18-34.586 15.552-49.923a769.07 769.07 0 0 1 10.767-28.927C266.398 25.554 280.598 0 280.598 0s78.36 141.083 78.36 295.195z"/></g><path d="M250.092 66.803v486.5h-10.767V95.73c3.6-10.312 7.238-19.99 10.767-28.927z" opacity=".1"/><circle cx="278.206" cy="192.609" r="43.068" fill="#3f3d56"/><g fill="#169bd7"><path d="M372.716 547.92c-9.576-23.572-21.87-27.638-29.908-27.285v-3.82H217.193v3.82c-8.037-.354-20.332 3.713-29.908 27.285-15.552 38.283 9.57 104.08 9.57 104.08s-13.426-91.767 31.158-92.37A52.76 52.76 0 0 0 242 572.319V597h72v-22.434c7.038-3.57 13.185-8.674 17.987-14.937 44.584.604 31.158 92.37 31.158 92.37s25.123-65.798 9.57-104.08z"/><circle cx="278.206" cy="192.609" r="33.497"/><path d="M846 200.96h-2c.3 45.084 36.905 81.5 82 81.54v-2c-43.982-.048-79.694-35.56-80-79.54zm-37 0h-2c.316 65.512 53.477 118.472 119 118.54v-2c-64.406-.072-116.67-52.134-117-116.54zm-38 0h-2c.25 86.36 70.58 156.54 157 156.54v-2c-85.32 0-154.75-69.28-155-154.54z"/></g></svg>